<svg id="Layer_1" data-name="Layer 1" xmlns="http://www.w3.org/2000/svg" viewBox="0 0 33.1 23.8"><defs><style>.cls-1{fill:#e4e4e0;}</style></defs><title>logo</title><path class="cls-1" d="M17.1,2.4h.8l1.3,1.8,1.1,1.6L23,9.7l.8,1.2,2.6,3.8,1,1.3,4,5.9.5.6h1.2L18.3,1.2H7.6A2,2,0,0,0,5.8,0,1.8,1.8,0,0,0,4.1,1.2a1.3,1.3,0,0,0-.1.6,1.5,1.5,0,0,0,.1.7l.3.5a1.7,1.7,0,0,0,1.4.7A2.1,2.1,0,0,0,7.3,3l.3-.5h5V3H9.7L8.8,6.3H6.6A1.9,1.9,0,0,0,4.8,5,1.9,1.9,0,0,0,3,6.9a1.3,1.3,0,0,0,.1.6,3.5,3.5,0,0,0,.5.8,2.8,2.8,0,0,0,1.2.4A2.1,2.1,0,0,0,6,8.3l.6-.8h4.7l-.2.8H8.3l-.9,3H5.6a2,2,0,0,0-1.8-1.2A1.8,1.8,0,0,0,2,11.9a1.3,1.3,0,0,0,.1.6,1.8,1.8,0,0,0,.9,1,1.3,1.3,0,0,0,.8.3l.9-.3a1.8,1.8,0,0,0,.9-1H9.9l-.2,1H6.8l-.7,2.8H4.6a2,2,0,0,0-1.8-1.2A1.8,1.8,0,0,0,1,17a1.3,1.3,0,0,0,.1.6,1.8,1.8,0,0,0,1.7,1.2,2,2,0,0,0,1.8-1.2h4l-.3,1.2H5.4l-.7,2.6H3.6a2,2,0,0,0-1.8-1.2A1.8,1.8,0,0,0,0,22a.9.9,0,0,0,.1.5h0a1.8,1.8,0,0,0,1.7,1.2,2,2,0,0,0,1.8-1.2H9.3l1-3.7.3-1.2,1.1-4.1.3-1,1.1-4.2.2-.8L14.5,3l.2-.5h2.4ZM6.4,2.5l-.6.2-.5-.2c0-.1,0-.1-.1-.1A.8.8,0,0,1,5,1.8a1.4,1.4,0,0,1,.2-.6h.1L5.8,1l.6.2c.1.2.3.4.3.6A1.5,1.5,0,0,1,6.4,2.5Zm-1,5-.6.2-.5-.2A.9.9,0,0,1,4,6.9.9.9,0,0,1,4.8,6a.9.9,0,0,1,.6.3.9.9,0,0,1,.3.6C5.7,7.1,5.5,7.3,5.4,7.5Zm-1,5-.6.3a.5.5,0,0,1-.5-.3.6.6,0,0,1-.3-.6.7.7,0,0,1,.3-.6l.5-.2.6.2a1.1,1.1,0,0,1,.3.6A.9.9,0,0,1,4.4,12.5Zm-1,5.1-.6.2-.5-.2A.9.9,0,0,1,2,17a.9.9,0,0,1,.8-.9l.6.2a1.5,1.5,0,0,1,.3.7C3.7,17.2,3.5,17.4,3.4,17.6Zm-.9,4.9a.1.1,0,0,0-.1.1.7.7,0,0,1-.6.2c-.2,0-.4,0-.5-.2H1.2A.8.8,0,0,1,1,22a.8.8,0,0,1,.8-.8l.6.2a.9.9,0,0,1,.3.6A.8.8,0,0,1,2.5,22.5Z"/><polygon class="cls-1" points="17.3 2.4 17.1 2.4 16.6 2.4 16.6 2.5 17.3 2.5 17.3 2.4"/><polygon class="cls-1" points="18 2.2 12.6 22.5 14 22.5 19.3 2.8 18 2.2"/><polygon class="cls-1" points="21.4 6.4 17.1 22.5 18.5 22.5 22.4 7.9 21.4 6.4"/><polygon class="cls-1" points="24.8 10.9 21.7 22.5 23.1 22.5 25.8 12.5 24.8 10.9"/><polygon class="cls-1" points="26.8 22.5 28.3 22.5 29.3 18.6 28.3 17 26.8 22.5"/></svg>